<?xml version="1.0" encoding="utf-8"?>
<svg version="1.1" xmlns:xlink="http://www.w3.org/1999/xlink" width="31px" height="33px" xmlns="http://www.w3.org/2000/svg">
  <g transform="matrix(1 0 0 1 -648 -468 )">
    <path d="M 7.000094 10.66654134375  C 7.000094 6.2545931875  10.5877851875 2.66663534375  14.99973334375 2.66663534375  C 19.4116815 2.66663534375  22.99963934375 6.2545931875  22.99963934375 10.66654134375  C 22.99963934375 15.07822284375  19.4116815 18.66644734375  14.99973334375 18.66644734375  C 10.5877851875 18.66644734375  6.99982734375 15.07822284375  6.99982734375 10.66654134375  Z M 29.620894875 30.32337703125  C 28.3099769375 25.4127680625  24.8540175625 21.5728131875  20.51433521875 19.7795009375  C 23.5953656875 17.9075229375  25.6662746875 14.52889596875  25.66627465625 10.66627465625  C 25.666008 4.78527709375  20.88073090625 0  14.9994666875 0  C 9.11820246875 0  4.33292534375 4.78527709375  4.33292534375 10.66654134375  C 4.33292534375 14.52889596875  6.4035676875 17.9075229375  9.486198125 19.7795009375  C 5.146249125 21.57414653125  1.69028971875 25.41276809375  0.378571812500001 30.32337703125  C 0.189404425723212 31.0342197862723  0.611897804681982 31.7639159798451  1.32256071875 31.953757875  C 2.03412173340598 32.1435228974498  2.76491906863028 31.7210828947126  2.9556081875 31.00976896875  C 4.47745696875 25.31276925  9.42939878125 21.33308265625  15 21.33308265625  C 20.57060121875 21.33308265625  25.5236096875 25.31303590625  27.0451918125 31.01030228125  C 27.1998502264658 31.5937357795426  27.7278348015908 31.9999961069528  28.3314189895384 31.9999961069528  C 28.4481762539635 31.9999961069528  28.5644257115927 31.9846291869276  28.677172625 31.95429121875  C 29.3879683883839 31.7644530354333  29.8104991197555 31.0345729601203  29.62116153125 30.3236436875  Z " fill-rule="nonzero" fill="#1296db" stroke="none" transform="matrix(1 0 0 1 648 468 )" />
  </g>
</svg>