<?xml version="1.0" encoding="utf-8"?>
<svg version="1.1" xmlns:xlink="http://www.w3.org/1999/xlink" width="30px" height="32px" xmlns="http://www.w3.org/2000/svg">
  <g transform="matrix(1 0 0 1 -652 -555 )">
    <path d="M 5.62457387695313 11.3846153846154  L 6.05113636363636 11.3846153846154  L 6.05113636363636 8.69230768028846  C 6.05113636363636 4.23115382211538  10.0568181951349 0.615384603365384  15 0.615384603365384  C 19.9431818048651 0.615384603365384  23.9488636363636 4.22923075721154  23.9488636363636 8.69230768028846  L 23.9488636363636 11.3846153846154  L 24.3754261230469 11.3846153846154  C 26.9629261230469 11.3846153846154  29.0625 13.2811538341346  29 15.6153846033654  L 29 27.1538461418269  C 29.0625 29.4911538221154  26.9663352405895 31.3846153605769  24.3754261230469 31  L 5.62499998668324 31  C 3.03707387695313 31.3846153966346  0.9375 29.4880769110577  1 27.1538461418269  L 1 15.6153846033654  C 0.9375 13.2780769230769  3.03366475941051 11.3846153846154  5.62457387695313 11.3846153846154  Z M 8.60795454545455 8.69230768028846  L 8.60795454545455 12  L 21.3920454545455 12  L 21.3920454545455 8.69230768028846  C 21.3920454545455 5.50384612980769  18.5313920587713 2.92307691105769  15 2.92307691105769  C 11.4690340909091 2.92307691105769  8.60795454545455 5.50576923076923  8.60795454545455 8.69230768028846  Z M 3.49431664403547 15.6130755231102  C 3.49431664403547 15.6138452167375  3.4943171566298 15.6146149102943  4 15.6153846033654  L 4 27.1538461418269  C 3.49431818181818 28.2138461298077  4.44971592240767 29.0769230528846  5.62457387695313 29  L 24.3750000133168 29  C 24.3758527982726 29.0769240142406  24.3767055837573 29.0769244768898  24.3775583693293 29.0769244768898  C 25.5528893452083 29.0769244768898  26.5056833560125 28.2169668055999  26.5056833560125 27.1561552581398  C 26.5056833560125 27.1553855524935  26.5056828434022 27.1546158469171  26 27.1538461418269  L 26 15.6153846033654  C 26.5056818181818 14.5553846153846  25.5502840775923 13.6923076923077  24.3754261230469 14  L 5.62499998668324 14  C 5.62414720174601 13.6923067670095  5.62329441627217 13.6923063043602  5.62244163071871 13.6923063043602  C 4.4471106548397 13.6923063043602  3.49431664403547 14.5522639756502  3.49431664403547 15.6130755231102  Z " fill-rule="nonzero" fill="#1296db" stroke="none" transform="matrix(1 0 0 1 652 555 )" />
  </g>
</svg>